<mxfile host="app.diagrams.net" modified="2020-09-14T15:29:15.428Z" agent="5.0 (Windows)" etag="Aly4PLL0qSGnEmyyU9HA" version="13.6.10" type="gitlab">
  <diagram id="bf_N-ejCFl6EzRMPsYIl" name="Page-1">
    <mxGraphModel dx="1630" dy="1159" grid="1" gridSize="10" guides="1" tooltips="1" connect="1" arrows="1" fold="1" page="1" pageScale="1" pageWidth="850" pageHeight="1100" math="0" shadow="0">
      <root>
        <mxCell id="0" />
        <mxCell id="1" parent="0" />
        <mxCell id="ZLFob6qzbBeFxFrPmJv6-1" value="" style="rounded=0;whiteSpace=wrap;html=1;fillColor=#FFF2CC;strokeColor=#FFF2CC;" vertex="1" parent="1">
          <mxGeometry x="30" y="320" width="90" height="40" as="geometry" />
        </mxCell>
        <mxCell id="ZLFob6qzbBeFxFrPmJv6-2" value="" style="rounded=0;whiteSpace=wrap;html=1;direction=south;strokeColor=#FFF2CC;fillColor=#FFF2CC;" vertex="1" parent="1">
          <mxGeometry x="600" y="200" width="40" height="280" as="geometry" />
        </mxCell>
        <mxCell id="ZLFob6qzbBeFxFrPmJv6-3" value="" style="rounded=0;whiteSpace=wrap;html=1;fillColor=#fff2cc;direction=south;strokeColor=#FFF2CC;" vertex="1" parent="1">
          <mxGeometry x="440" y="200" width="40" height="280" as="geometry" />
        </mxCell>
        <mxCell id="ZLFob6qzbBeFxFrPmJv6-4" value="" style="rounded=0;whiteSpace=wrap;html=1;fillColor=#fff2cc;direction=south;strokeColor=#FFF2CC;" vertex="1" parent="1">
          <mxGeometry x="280" y="200" width="40" height="280" as="geometry" />
        </mxCell>
        <mxCell id="ZLFob6qzbBeFxFrPmJv6-5" value="" style="rounded=0;whiteSpace=wrap;html=1;fillColor=#fff2cc;strokeColor=#FFF2CC;" vertex="1" parent="1">
          <mxGeometry x="120" y="440" width="640" height="40" as="geometry" />
        </mxCell>
        <mxCell id="ZLFob6qzbBeFxFrPmJv6-6" value="" style="rounded=0;whiteSpace=wrap;html=1;fillColor=#FFF2CC;strokeColor=#FFF2CC;" vertex="1" parent="1">
          <mxGeometry x="120" y="200" width="640" height="40" as="geometry" />
        </mxCell>
        <mxCell id="ZLFob6qzbBeFxFrPmJv6-7" value="" style="rounded=0;whiteSpace=wrap;html=1;fillColor=#fff2cc;direction=south;strokeColor=#FFF2CC;" vertex="1" parent="1">
          <mxGeometry x="120" y="200" width="40" height="280" as="geometry" />
        </mxCell>
        <mxCell id="ZLFob6qzbBeFxFrPmJv6-8" value="" style="rounded=0;whiteSpace=wrap;html=1;" vertex="1" parent="1">
          <mxGeometry x="640" y="240" width="120" height="200" as="geometry" />
        </mxCell>
        <mxCell id="ZLFob6qzbBeFxFrPmJv6-9" value="" style="endArrow=none;html=1;rounded=0;exitX=1;exitY=0;exitDx=0;exitDy=0;" edge="1" parent="1" source="ZLFob6qzbBeFxFrPmJv6-6">
          <mxGeometry width="50" height="50" relative="1" as="geometry">
            <mxPoint x="700" y="200" as="sourcePoint" />
            <mxPoint x="30" y="319.9999999999998" as="targetPoint" />
            <Array as="points">
              <mxPoint x="570" y="200" />
              <mxPoint x="500" y="200" />
              <mxPoint x="350" y="200" />
              <mxPoint x="260" y="200" />
              <mxPoint x="120" y="200" />
              <mxPoint x="120" y="320" />
            </Array>
          </mxGeometry>
        </mxCell>
        <mxCell id="ZLFob6qzbBeFxFrPmJv6-10" value="" style="endArrow=none;html=1;rounded=0;exitX=1;exitY=1;exitDx=0;exitDy=0;" edge="1" parent="1" source="ZLFob6qzbBeFxFrPmJv6-5">
          <mxGeometry width="50" height="50" relative="1" as="geometry">
            <mxPoint x="700" y="480" as="sourcePoint" />
            <mxPoint x="30" y="359.9999999999998" as="targetPoint" />
            <Array as="points">
              <mxPoint x="390" y="480" />
              <mxPoint x="230" y="480" />
              <mxPoint x="170" y="480" />
              <mxPoint x="120" y="480" />
              <mxPoint x="120" y="370" />
              <mxPoint x="120" y="360" />
              <mxPoint x="100" y="360" />
            </Array>
          </mxGeometry>
        </mxCell>
        <mxCell id="ZLFob6qzbBeFxFrPmJv6-11" value="" style="rounded=0;whiteSpace=wrap;html=1;" vertex="1" parent="1">
          <mxGeometry x="160" y="240" width="120" height="200" as="geometry" />
        </mxCell>
        <mxCell id="ZLFob6qzbBeFxFrPmJv6-12" value="" style="rounded=0;whiteSpace=wrap;html=1;" vertex="1" parent="1">
          <mxGeometry x="321" y="240" width="120" height="200" as="geometry" />
        </mxCell>
        <mxCell id="ZLFob6qzbBeFxFrPmJv6-13" value="" style="rounded=0;whiteSpace=wrap;html=1;" vertex="1" parent="1">
          <mxGeometry x="480" y="240" width="120" height="200" as="geometry" />
        </mxCell>
        <mxCell id="ZLFob6qzbBeFxFrPmJv6-14" value="" style="whiteSpace=wrap;html=1;aspect=fixed;fillColor=#FFF2CC;" vertex="1" parent="1">
          <mxGeometry x="258" y="303" width="80" height="80" as="geometry" />
        </mxCell>
        <mxCell id="ZLFob6qzbBeFxFrPmJv6-15" value="" style="whiteSpace=wrap;html=1;aspect=fixed;fillColor=#FFF2CC;" vertex="1" parent="1">
          <mxGeometry x="420" y="303" width="80" height="80" as="geometry" />
        </mxCell>
        <mxCell id="ZLFob6qzbBeFxFrPmJv6-16" value="" style="whiteSpace=wrap;html=1;aspect=fixed;fillColor=#FFF2CC;" vertex="1" parent="1">
          <mxGeometry x="580" y="303" width="80" height="80" as="geometry" />
        </mxCell>
        <mxCell id="ZLFob6qzbBeFxFrPmJv6-17" value="" style="rounded=0;whiteSpace=wrap;html=1;fillColor=#FFF2CC;strokeColor=#FFF2CC;direction=south;" vertex="1" parent="1">
          <mxGeometry x="281" y="301" width="39" height="86" as="geometry" />
        </mxCell>
        <mxCell id="ZLFob6qzbBeFxFrPmJv6-18" value="" style="rounded=0;whiteSpace=wrap;html=1;fillColor=#FFF2CC;strokeColor=#FFF2CC;direction=south;" vertex="1" parent="1">
          <mxGeometry x="442" y="302" width="37" height="86" as="geometry" />
        </mxCell>
        <mxCell id="ZLFob6qzbBeFxFrPmJv6-19" value="" style="rounded=0;whiteSpace=wrap;html=1;fillColor=#FFF2CC;strokeColor=#FFF2CC;direction=south;" vertex="1" parent="1">
          <mxGeometry x="601" y="302" width="38" height="86" as="geometry" />
        </mxCell>
        <mxCell id="ZLFob6qzbBeFxFrPmJv6-20" value="" style="rounded=0;whiteSpace=wrap;html=1;strokeColor=#FFFFFF;fillColor=#FFFFFF;" vertex="1" parent="1">
          <mxGeometry x="713" y="298" width="49" height="91" as="geometry" />
        </mxCell>
        <mxCell id="ZLFob6qzbBeFxFrPmJv6-21" value="" style="rounded=0;whiteSpace=wrap;html=1;strokeColor=#FFFFFF;fillColor=#FFFFFF;" vertex="1" parent="1">
          <mxGeometry x="725" y="430" width="38" height="9" as="geometry" />
        </mxCell>
        <mxCell id="ZLFob6qzbBeFxFrPmJv6-22" value="" style="rounded=0;whiteSpace=wrap;html=1;strokeColor=#FFFFFF;fillColor=#FFFFFF;" vertex="1" parent="1">
          <mxGeometry x="725" y="241" width="37" height="18" as="geometry" />
        </mxCell>
        <mxCell id="ZLFob6qzbBeFxFrPmJv6-23" value="" style="rounded=0;whiteSpace=wrap;html=1;direction=west;fontColor=#ffffff;fillColor=none;" vertex="1" parent="1">
          <mxGeometry x="201" y="191" width="40" height="60" as="geometry" />
        </mxCell>
        <mxCell id="ZLFob6qzbBeFxFrPmJv6-24" value="" style="rounded=0;whiteSpace=wrap;html=1;direction=west;fontColor=#ffffff;fillColor=none;" vertex="1" parent="1">
          <mxGeometry x="521" y="190" width="40" height="60" as="geometry" />
        </mxCell>
        <mxCell id="ZLFob6qzbBeFxFrPmJv6-25" value="" style="rounded=0;whiteSpace=wrap;html=1;direction=west;fontColor=#ffffff;fillColor=none;" vertex="1" parent="1">
          <mxGeometry x="203" y="433" width="40" height="60" as="geometry" />
        </mxCell>
        <mxCell id="ZLFob6qzbBeFxFrPmJv6-26" value="" style="rounded=0;whiteSpace=wrap;html=1;direction=west;fontColor=#ffffff;fillColor=none;" vertex="1" parent="1">
          <mxGeometry x="363" y="433" width="40" height="60" as="geometry" />
        </mxCell>
        <mxCell id="ZLFob6qzbBeFxFrPmJv6-27" value="" style="rounded=0;whiteSpace=wrap;html=1;direction=west;fontColor=#ffffff;fillColor=none;" vertex="1" parent="1">
          <mxGeometry x="523" y="433" width="40" height="60" as="geometry" />
        </mxCell>
        <mxCell id="ZLFob6qzbBeFxFrPmJv6-28" value="" style="rounded=0;whiteSpace=wrap;html=1;direction=west;fontColor=#ffffff;fillColor=none;" vertex="1" parent="1">
          <mxGeometry x="683" y="433" width="40" height="60" as="geometry" />
        </mxCell>
        <mxCell id="ZLFob6qzbBeFxFrPmJv6-29" value="" style="ellipse;whiteSpace=wrap;html=1;aspect=fixed;fillColor=#CCCCCC;strokeColor=#CCCCCC;" vertex="1" parent="1">
          <mxGeometry x="262" y="306" width="73" height="73" as="geometry" />
        </mxCell>
        <mxCell id="ZLFob6qzbBeFxFrPmJv6-30" value="" style="ellipse;whiteSpace=wrap;html=1;aspect=fixed;fillColor=#CCCCCC;strokeColor=#CCCCCC;" vertex="1" parent="1">
          <mxGeometry x="423.5" y="306.5" width="73" height="73" as="geometry" />
        </mxCell>
        <mxCell id="ZLFob6qzbBeFxFrPmJv6-31" value="" style="ellipse;whiteSpace=wrap;html=1;aspect=fixed;fillColor=#CCCCCC;strokeColor=#CCCCCC;" vertex="1" parent="1">
          <mxGeometry x="583.5" y="306.5" width="73" height="73" as="geometry" />
        </mxCell>
        <mxCell id="ZLFob6qzbBeFxFrPmJv6-32" value="" style="rounded=0;whiteSpace=wrap;html=1;direction=west;fontColor=#ffffff;fillColor=none;" vertex="1" parent="1">
          <mxGeometry x="360" y="191" width="40" height="60" as="geometry" />
        </mxCell>
        <mxCell id="ZLFob6qzbBeFxFrPmJv6-33" value="" style="rounded=0;whiteSpace=wrap;html=1;direction=west;fontColor=#ffffff;fillColor=none;" vertex="1" parent="1">
          <mxGeometry x="680" y="191" width="40" height="60" as="geometry" />
        </mxCell>
        <mxCell id="ZLFob6qzbBeFxFrPmJv6-37" value="" style="rounded=0;whiteSpace=wrap;html=1;direction=south;strokeColor=#FFFFFF;" vertex="1" parent="1">
          <mxGeometry x="744" y="250" width="16" height="180" as="geometry" />
        </mxCell>
        <mxCell id="ZLFob6qzbBeFxFrPmJv6-38" value="" style="rounded=0;whiteSpace=wrap;html=1;direction=south;fontColor=#ffffff;fillColor=#003366;" vertex="1" parent="1">
          <mxGeometry x="241" y="390" width="519" height="40" as="geometry" />
        </mxCell>
        <mxCell id="ZLFob6qzbBeFxFrPmJv6-39" value="" style="rounded=0;whiteSpace=wrap;html=1;direction=south;fontColor=#ffffff;fillColor=#003366;" vertex="1" parent="1">
          <mxGeometry x="240" y="258" width="520" height="40" as="geometry" />
        </mxCell>
        <mxCell id="ZLFob6qzbBeFxFrPmJv6-42" value="" style="edgeStyle=segmentEdgeStyle;endArrow=classic;html=1;" edge="1" parent="1">
          <mxGeometry width="50" height="50" relative="1" as="geometry">
            <mxPoint x="137" y="259" as="sourcePoint" />
            <mxPoint x="197" y="219" as="targetPoint" />
            <Array as="points">
              <mxPoint x="137" y="219" />
            </Array>
          </mxGeometry>
        </mxCell>
        <mxCell id="ZLFob6qzbBeFxFrPmJv6-43" value="" style="edgeStyle=segmentEdgeStyle;endArrow=classic;html=1;entryX=0.122;entryY=0.6;entryDx=0;entryDy=0;entryPerimeter=0;" edge="1" parent="1" target="ZLFob6qzbBeFxFrPmJv6-5">
          <mxGeometry width="50" height="50" relative="1" as="geometry">
            <mxPoint x="140" y="430" as="sourcePoint" />
            <mxPoint x="190" y="464.49" as="targetPoint" />
            <Array as="points">
              <mxPoint x="140" y="464" />
            </Array>
          </mxGeometry>
        </mxCell>
        <mxCell id="ZLFob6qzbBeFxFrPmJv6-44" value="" style="endArrow=classic;html=1;" edge="1" parent="1">
          <mxGeometry width="50" height="50" relative="1" as="geometry">
            <mxPoint x="423.5" y="220.66" as="sourcePoint" />
            <mxPoint x="501.5" y="220.66" as="targetPoint" />
          </mxGeometry>
        </mxCell>
        <mxCell id="ZLFob6qzbBeFxFrPmJv6-45" value="" style="endArrow=classic;html=1;" edge="1" parent="1">
          <mxGeometry width="50" height="50" relative="1" as="geometry">
            <mxPoint x="262" y="219.66" as="sourcePoint" />
            <mxPoint x="340" y="219.66" as="targetPoint" />
          </mxGeometry>
        </mxCell>
        <mxCell id="ZLFob6qzbBeFxFrPmJv6-46" value="" style="endArrow=classic;html=1;" edge="1" parent="1">
          <mxGeometry width="50" height="50" relative="1" as="geometry">
            <mxPoint x="583.5" y="220.65999999999985" as="sourcePoint" />
            <mxPoint x="661.5" y="220.65999999999985" as="targetPoint" />
          </mxGeometry>
        </mxCell>
        <mxCell id="ZLFob6qzbBeFxFrPmJv6-47" value="" style="endArrow=classic;html=1;" edge="1" parent="1">
          <mxGeometry width="50" height="50" relative="1" as="geometry">
            <mxPoint x="262" y="462.6600000000001" as="sourcePoint" />
            <mxPoint x="340" y="462.6600000000001" as="targetPoint" />
          </mxGeometry>
        </mxCell>
        <mxCell id="ZLFob6qzbBeFxFrPmJv6-48" value="" style="endArrow=classic;html=1;" edge="1" parent="1">
          <mxGeometry width="50" height="50" relative="1" as="geometry">
            <mxPoint x="423.5" y="462.6600000000001" as="sourcePoint" />
            <mxPoint x="501.5" y="462.6600000000001" as="targetPoint" />
          </mxGeometry>
        </mxCell>
        <mxCell id="ZLFob6qzbBeFxFrPmJv6-49" value="" style="endArrow=classic;html=1;" edge="1" parent="1">
          <mxGeometry width="50" height="50" relative="1" as="geometry">
            <mxPoint x="583.5" y="462.6600000000001" as="sourcePoint" />
            <mxPoint x="661.5" y="462.6600000000001" as="targetPoint" />
          </mxGeometry>
        </mxCell>
        <mxCell id="ZLFob6qzbBeFxFrPmJv6-50" value="" style="endArrow=classic;html=1;" edge="1" parent="1">
          <mxGeometry width="50" height="50" relative="1" as="geometry">
            <mxPoint x="37" y="339.58" as="sourcePoint" />
            <mxPoint x="115" y="339.58" as="targetPoint" />
          </mxGeometry>
        </mxCell>
      </root>
    </mxGraphModel>
  </diagram>
</mxfile>
